<svg width="32" height="32" viewBox="0 0 32 32" fill="none" xmlns="http://www.w3.org/2000/svg">
  <path
    d="M9.01791 13.3873C9.01791 13.7811 9.06048 14.1004 9.13498 14.3345C9.22012 14.5686 9.32655 14.8241 9.47555 15.1008C9.52877 15.1859 9.55005 15.2711 9.55005 15.3456C9.55005 15.452 9.4862 15.5584 9.34784 15.6649L8.67734 16.1119C8.58155 16.1757 8.48577 16.2076 8.40062 16.2076C8.2942 16.2076 8.18777 16.1544 8.08134 16.0586C7.93234 15.899 7.80462 15.7287 7.6982 15.5584C7.59177 15.3775 7.48534 15.1753 7.36827 14.9305C6.53812 15.9096 5.49512 16.3992 4.23926 16.3992C3.34526 16.3992 2.63219 16.1438 2.11069 15.6329C1.58919 15.1221 1.32312 14.4409 1.32312 13.5895C1.32312 12.6849 1.64241 11.9505 2.29162 11.3971C2.94084 10.8436 3.80291 10.5669 4.89912 10.5669C5.26098 10.5669 5.63348 10.5989 6.02727 10.6521C6.42105 10.7053 6.82548 10.7904 7.2512 10.8862V10.1093C7.2512 9.30043 7.08091 8.73636 6.75098 8.40643C6.41041 8.0765 5.83569 7.91686 5.01619 7.91686C4.64369 7.91686 4.26055 7.95943 3.86676 8.05522C3.47298 8.151 3.08984 8.26807 2.71734 8.41707C2.54705 8.49157 2.41934 8.53414 2.34483 8.55543C2.27033 8.57672 2.21712 8.58736 2.17455 8.58736C2.02555 8.58736 1.95105 8.48093 1.95105 8.25743V7.73593C1.95105 7.56564 1.97233 7.43793 2.02555 7.36343C2.07876 7.28893 2.17455 7.21443 2.32355 7.13993C2.69605 6.94836 3.14305 6.78871 3.66455 6.661C4.18605 6.52264 4.73948 6.45879 5.32484 6.45879C6.59134 6.45879 7.51727 6.74614 8.11327 7.32086C8.69862 7.89557 8.99663 8.76829 8.99663 9.939V13.3873H9.01791ZM4.69691 15.005C5.04812 15.005 5.40998 14.9411 5.79312 14.8134C6.17627 14.6857 6.51684 14.4516 6.80419 14.1323C6.97448 13.9301 7.10219 13.7066 7.16605 13.4511C7.22991 13.1957 7.27248 12.8871 7.27248 12.5252V12.0782C6.96384 12.0037 6.63391 11.9399 6.29334 11.8973C5.95277 11.8547 5.62284 11.8334 5.29291 11.8334C4.57984 11.8334 4.05834 11.9718 3.70712 12.2591C3.35591 12.5465 3.18562 12.9509 3.18562 13.4831C3.18562 13.9833 3.31334 14.3558 3.57941 14.6112C3.83484 14.8773 4.20734 15.005 4.69691 15.005ZM13.2431 16.1544C13.0516 16.1544 12.9238 16.1225 12.8387 16.048C12.7536 15.9841 12.6791 15.8351 12.6152 15.6329L10.1141 7.406C10.0503 7.19314 10.0183 7.05479 10.0183 6.98029C10.0183 6.81 10.1035 6.71421 10.2738 6.71421H11.3168C11.519 6.71421 11.6573 6.74614 11.7318 6.82064C11.817 6.8845 11.8808 7.0335 11.9447 7.23571L13.7327 14.2813L15.393 7.23571C15.4462 7.02286 15.5101 6.8845 15.5952 6.82064C15.6803 6.75679 15.8293 6.71421 16.0209 6.71421H16.8723C17.0746 6.71421 17.2129 6.74614 17.2981 6.82064C17.3832 6.8845 17.4577 7.0335 17.5003 7.23571L19.1818 14.3664L21.0231 7.23571C21.0869 7.02286 21.1614 6.8845 21.2359 6.82064C21.3211 6.75679 21.4594 6.71421 21.651 6.71421H22.6408C22.8111 6.71421 22.9068 6.79936 22.9068 6.98029C22.9068 7.0335 22.8962 7.08671 22.8856 7.15057C22.8749 7.21443 22.8536 7.29957 22.8111 7.41664L20.2461 15.6436C20.1823 15.8564 20.1078 15.9948 20.0226 16.0586C19.9375 16.1225 19.7991 16.1651 19.6182 16.1651H18.7029C18.5007 16.1651 18.3623 16.1331 18.2772 16.0586C18.1921 15.9841 18.1176 15.8458 18.075 15.6329L16.4253 8.76829L14.7863 15.6223C14.7331 15.8351 14.6693 15.9735 14.5841 16.048C14.499 16.1225 14.35 16.1544 14.1584 16.1544H13.2431ZM26.9192 16.4418C26.3658 16.4418 25.8124 16.3779 25.2802 16.2502C24.7481 16.1225 24.333 15.9841 24.0563 15.8245C23.886 15.7287 23.7689 15.6223 23.7263 15.5265C23.6838 15.4307 23.6625 15.3243 23.6625 15.2285V14.6857C23.6625 14.4622 23.7476 14.3558 23.9073 14.3558C23.9711 14.3558 24.035 14.3664 24.0988 14.3877C24.1627 14.409 24.2585 14.4516 24.3649 14.4941C24.7268 14.6538 25.1206 14.7815 25.5356 14.8666C25.9614 14.9518 26.3764 14.9944 26.8021 14.9944C27.4726 14.9944 27.9941 14.8773 28.356 14.6431C28.7179 14.409 28.9094 14.0684 28.9094 13.6321C28.9094 13.3341 28.8136 13.0893 28.6221 12.8871C28.4305 12.6849 28.0686 12.5039 27.5471 12.3336L26.0039 11.8547C25.227 11.6099 24.6523 11.2481 24.3011 10.7691C23.9498 10.3009 23.7689 9.77936 23.7689 9.22593C23.7689 8.77893 23.8647 8.38514 24.0563 8.04457C24.2479 7.704 24.5033 7.406 24.8226 7.17186C25.1418 6.92707 25.5037 6.74614 25.9294 6.61843C26.3551 6.49071 26.8021 6.4375 27.2704 6.4375C27.5046 6.4375 27.7494 6.44814 27.9835 6.48007C28.2283 6.512 28.4518 6.55457 28.6753 6.59714C28.8881 6.65036 29.0904 6.70357 29.2819 6.76743C29.4735 6.83129 29.6225 6.89514 29.7289 6.959C29.8779 7.04414 29.9844 7.12929 30.0482 7.22507C30.1121 7.31021 30.144 7.42729 30.144 7.57629V8.0765C30.144 8.3 30.0589 8.41707 29.8992 8.41707C29.8141 8.41707 29.6757 8.3745 29.4948 8.28936C28.8881 8.01264 28.207 7.87429 27.4514 7.87429C26.8447 7.87429 26.3658 7.97007 26.0358 8.17229C25.7059 8.3745 25.5356 8.68314 25.5356 9.1195C25.5356 9.4175 25.6421 9.67293 25.8549 9.87515C26.0678 10.0774 26.4616 10.2796 27.0256 10.4605L28.5369 10.9394C29.3032 11.1842 29.8566 11.5248 30.1866 11.9611C30.5165 12.3975 30.6761 12.8977 30.6761 13.4511C30.6761 13.9088 30.5804 14.3239 30.3994 14.6857C30.2079 15.0476 29.9524 15.3669 29.6225 15.6223C29.2926 15.8884 28.8988 16.0799 28.4411 16.2183C27.9622 16.3673 27.462 16.4418 26.9192 16.4418Z"
    fill="#FF9900" />
  <path
    d="M28.9307 21.6142C25.4292 24.2004 20.3419 25.5734 15.9677 25.5734C9.83741 25.5734 4.31377 23.3064 0.141765 19.5389C-0.188164 19.2409 0.109836 18.8364 0.503622 19.0706C5.0162 21.6887 10.5824 23.2745 16.3402 23.2745C20.2248 23.2745 24.4926 22.4657 28.4199 20.8054C29.0052 20.5393 29.5054 21.1885 28.9307 21.6142ZM30.3888 19.9539C29.9418 19.3792 27.4301 19.6772 26.2913 19.8156C25.9507 19.8582 25.8975 19.5602 26.2061 19.3367C28.207 17.9318 31.4956 18.3362 31.8788 18.8045C32.2619 19.2834 31.7724 22.5721 29.8992 24.1472C29.6119 24.392 29.3351 24.2643 29.4629 23.945C29.8886 22.8914 30.8358 20.518 30.3888 19.9539Z"
    fill="#FF9900" />
</svg>