<svg width="32" height="32" viewBox="0 0 32 32" fill="none" xmlns="http://www.w3.org/2000/svg">
  <path
    d="M4.375 25.8294L4.56872 25.5581L13.7327 8.16985L13.7521 7.98577L9.71238 0.397828C9.37394 -0.237799 8.42114 -0.0770903 8.31006 0.634445L4.375 25.8294Z"
    fill="#FFC24A" />
  <path
    d="M4.48926 25.6225L4.6358 25.3367L13.7038 8.13067L9.6742 0.511861C9.3393 -0.117107 8.48885 0.04323 8.37895 0.74731L4.48926 25.6225Z"
    fill="#FFA712" />
  <path
    d="M16.697 13.7253L19.7049 10.6448L16.6962 4.90116C16.4105 4.35748 15.6131 4.35591 15.3305 4.90116L13.7231 7.96682V8.22791L16.697 13.7253Z"
    fill="#F4BD62" />
  <path
    d="M16.6434 13.5969L19.5675 10.6021L16.6434 5.03399C16.3657 4.50544 15.6911 4.45006 15.4164 4.98014L13.8004 8.0933L13.7521 8.25245L16.6434 13.5969Z"
    fill="#FFA50E" />
  <path d="M4.375 25.8293L4.46281 25.741L4.78186 25.6114L16.5081 13.9287L16.6566 13.5243L13.7314 7.9501L4.375 25.8293Z"
    fill="#F6820C" />
  <path
    d="M17.0726 31.7211L27.6851 25.8025L24.6545 7.13819C24.5597 6.55423 23.8433 6.32337 23.4253 6.74208L4.375 25.8293L14.9266 31.7206C15.5934 32.0929 16.4056 32.0931 17.0726 31.7211Z"
    fill="#FDE068" />
  <path
    d="M27.59 25.7528L24.5824 7.23025C24.4884 6.65072 23.8926 6.41091 23.4778 6.82645L4.49268 25.7931L14.9284 31.6261C15.5902 31.9956 16.3961 31.9957 17.0581 31.6266L27.59 25.7528Z"
    fill="#FCCA3F" />
  <path
    d="M17.0726 31.5468C16.4056 31.9188 15.5934 31.9186 14.9266 31.5463L4.45999 25.7396L4.375 25.8293L14.9266 31.7206C15.5934 32.0929 16.4056 32.0931 17.0726 31.7211L27.6851 25.8025L27.6591 25.6426L17.0726 31.5468Z"
    fill="#EEAB37" />
</svg>