<svg width="32" height="32" viewBox="0 0 32 32" fill="none" xmlns="http://www.w3.org/2000/svg">
<g clipPath="url(#clip0_934_1084)">
<path fill-rule="evenodd" clip-rule="evenodd" d="M12 12H28V28H12V12V12Z" fill="#F7DF1E"/>
<path fill-rule="evenodd" clip-rule="evenodd" d="M16.2071 25.3704L17.4315 24.6294C17.6677 25.0482 17.8826 25.4026 18.398 25.4026C18.8921 25.4026 19.2036 25.2093 19.2036 24.4576V19.3452H20.7072V24.4789C20.7072 26.0362 19.7943 26.745 18.4625 26.745C17.2597 26.745 16.5614 26.1221 16.207 25.3703" fill="black"/>
<path fill-rule="evenodd" clip-rule="evenodd" d="M21.5244 25.2093L22.7487 24.5005C23.071 25.0268 23.4898 25.4134 24.2309 25.4134C24.8539 25.4134 25.2512 25.1019 25.2512 24.6723C25.2512 24.1568 24.8431 23.9742 24.1557 23.6736L23.7799 23.5124C22.6951 23.0506 21.9754 22.4707 21.9754 21.2462C21.9754 20.1185 22.8346 19.2593 24.1772 19.2593C25.1331 19.2593 25.8205 19.5923 26.3145 20.4622L25.1438 21.214C24.886 20.7522 24.6068 20.5697 24.1772 20.5697C23.7369 20.5697 23.4576 20.8489 23.4576 21.214C23.4576 21.6651 23.7369 21.8477 24.3812 22.127L24.7571 22.2881C26.0352 22.8359 26.7548 23.3943 26.7548 24.6508C26.7548 26.0042 25.6916 26.7452 24.2631 26.7452C22.8669 26.7452 21.9647 26.0793 21.5244 25.2093" fill="black"/>
</g>
<path fill-rule="evenodd" clip-rule="evenodd" d="M10.2215 22.4005L8.9375 8H23.0461L21.7607 22.3981L15.9832 24L10.2215 22.4005Z" fill="#0071BC"/>
<path fill-rule="evenodd" clip-rule="evenodd" d="M16.0039 22.7748L20.6666 21.4921L21.7591 9.19922H16.0039V22.7748Z" fill="#29ABE2"/>
<path fill-rule="evenodd" clip-rule="evenodd" d="M11.876 14.4901L12.0306 16.2536L16.0032 14.4901V12.7236L11.876 14.4901Z" fill="#B3B3B3"/>
<path fill-rule="evenodd" clip-rule="evenodd" d="M20.4036 10.8379L16.0039 12.7235V14.4899L20.2519 12.6015L20.4036 10.8379Z" fill="#E6E6E6"/>
<path fill-rule="evenodd" clip-rule="evenodd" d="M16.0037 19.1041L15.99 19.1062L14.0199 18.5771L13.8912 17.1704H12.1182L12.3656 19.9417L15.9896 20.9451L16.0037 20.9418V19.1041Z" fill="#E6E6E6"/>
<path fill-rule="evenodd" clip-rule="evenodd" d="M16.0039 14.4897V16.2533H18.1608L17.9648 18.559L16.0039 19.1056V20.9431L19.6159 19.9397L20.0915 14.4897H16.0039Z" fill="white"/>
<path fill-rule="evenodd" clip-rule="evenodd" d="M16.0032 14.4897H11.876L12.0306 16.2533H16.0032V14.4897Z" fill="#E6E6E6"/>
<path fill-rule="evenodd" clip-rule="evenodd" d="M16.0042 12.6015V10.8379H15.9863H11.5635L11.72 12.6015H16.0042Z" fill="#E6E6E6"/>
<path fill-rule="evenodd" clip-rule="evenodd" d="M16.0039 10.8379V12.5793V12.6015H20.2519L20.4036 10.8379H16.0039Z" fill="white"/>
<g clipPath="url(#clip1_934_1084)">
<path fill-rule="evenodd" clip-rule="evenodd" d="M5.22141 18.4006L3.9375 4H18.0455L16.7602 18.3983L10.9829 20L5.22141 18.4006Z" fill="#E44D26"/>
<path fill-rule="evenodd" clip-rule="evenodd" d="M10.9912 18.7755L15.6596 17.4813L16.7579 5.17725H10.9912V18.7755Z" fill="#F16529"/>
<path d="M8.65411 10.5186H10.9912V12.2848H7.03887L6.5625 6.94385H10.9912V8.71004H8.49271L8.65411 10.5186Z" fill="#EBEBEB"/>
<path d="M10.9835 15.1076L10.9912 15.1056V16.9431L10.9831 16.9454L7.36522 15.941L7.11778 13.1679H8.89074L9.01648 14.5765L10.9835 15.1076Z" fill="#EBEBEB"/>
<path d="M10.9854 6.94385H15.4096L15.2515 8.71004H10.9854V6.94385Z" fill="white"/>
<path d="M10.9854 12.2848V10.5186H15.0908L15.0477 10.9929L14.6061 15.941L10.9854 16.9445V15.107L12.9552 14.5754L13.1602 12.2848H10.9854Z" fill="white"/>
</g>
<defs>
<clipPath id="clip0_934_1084">
<rect width="16" height="16" fill="white" transform="translate(12 12)"/>
</clipPath>
<clipPath id="clip1_934_1084">
<rect width="16" height="16" fill="white" transform="translate(3 4)"/>
</clipPath>
</defs>
</svg>
