<svg width="32" height="32" viewBox="0 0 32 32" fill="none" xmlns="http://www.w3.org/2000/svg">
  <path fill-rule="evenodd" clip-rule="evenodd"
    d="M15.8264 25.7824C15.7179 25.7824 15.6166 25.7535 15.5226 25.7029L14.5606 25.1315C14.4159 25.0519 14.4882 25.023 14.5316 25.0085C14.7269 24.9434 14.7631 24.9289 14.9656 24.8132C14.9873 24.7987 15.0162 24.806 15.0379 24.8204L15.7757 25.2617C15.8047 25.2761 15.8408 25.2761 15.8625 25.2617L18.7486 23.5908C18.7775 23.5763 18.792 23.5474 18.792 23.5112V20.1767C18.792 20.1405 18.7775 20.1116 18.7486 20.0971L15.8625 18.4334C15.8336 18.419 15.7974 18.419 15.7757 18.4334L12.8897 20.0971C12.8607 20.1116 12.8463 20.1477 12.8463 20.1767V23.5112C12.8463 23.5401 12.8607 23.5763 12.8897 23.5908L13.6781 24.0465C14.1049 24.2635 14.3725 24.0103 14.3725 23.7571V20.466C14.3725 20.4226 14.4087 20.3792 14.4593 20.3792H14.8282C14.8716 20.3792 14.915 20.4154 14.915 20.466V23.7571C14.915 24.3286 14.604 24.6613 14.0615 24.6613C13.8951 24.6613 13.7649 24.6613 13.396 24.4805L12.6365 24.0465C12.4484 23.938 12.3327 23.7354 12.3327 23.5184V20.1839C12.3327 19.9669 12.4484 19.7644 12.6365 19.6559L15.5226 17.985C15.7034 17.8837 15.9493 17.8837 16.1302 17.985L19.0162 19.6559C19.2043 19.7644 19.32 19.9669 19.32 20.1839V23.5184C19.32 23.7354 19.2043 23.938 19.0162 24.0465L16.1302 25.7173C16.0361 25.7607 15.9276 25.7824 15.8264 25.7824ZM16.7161 23.4895C15.4502 23.4895 15.1898 22.9108 15.1898 22.419C15.1898 22.3756 15.226 22.3322 15.2766 22.3322H15.6528C15.6962 22.3322 15.7323 22.3611 15.7323 22.4045C15.7902 22.7879 15.9566 22.9759 16.7233 22.9759C17.3309 22.9759 17.5913 22.8385 17.5913 22.513C17.5913 22.3249 17.519 22.1875 16.5714 22.0935C15.783 22.0139 15.2911 21.8403 15.2911 21.211C15.2911 20.6251 15.783 20.2779 16.6076 20.2779C17.5334 20.2779 17.9891 20.5962 18.047 21.2906C18.047 21.3123 18.0398 21.334 18.0253 21.3557C18.0108 21.3701 17.9891 21.3846 17.9674 21.3846H17.5913C17.5551 21.3846 17.519 21.3557 17.5117 21.3195C17.4249 20.9217 17.2007 20.7915 16.6076 20.7915C15.9421 20.7915 15.8625 21.023 15.8625 21.1966C15.8625 21.4063 15.9566 21.4714 16.8535 21.5871C17.7432 21.7029 18.1627 21.8692 18.1627 22.4913C18.1555 23.1278 17.6347 23.4895 16.7161 23.4895Z"
    fill="#539E43" />
  <path fill-rule="evenodd" clip-rule="evenodd"
    d="M6.87161 12.7408C6.87161 12.6106 6.79928 12.4877 6.68355 12.4226L3.61664 10.6577C3.566 10.6287 3.50814 10.6143 3.45027 10.607H3.42134C3.36347 10.607 3.30561 10.6287 3.25497 10.6577L0.188065 12.4226C0.0723327 12.4877 0 12.6106 0 12.7408L0.00723327 17.4859C0.00723327 17.551 0.0433996 17.6161 0.101266 17.645C0.159132 17.6812 0.231465 17.6812 0.282098 17.645L2.10488 16.6034C2.22062 16.5383 2.29295 16.4153 2.29295 16.2851V14.0645C2.29295 13.9343 2.36528 13.8114 2.48101 13.7463L3.25497 13.2978C3.31284 13.2616 3.37794 13.2472 3.44304 13.2472C3.50814 13.2472 3.57324 13.2616 3.62387 13.2978L4.39783 13.7463C4.51356 13.8114 4.5859 13.9343 4.5859 14.0645V16.2851C4.5859 16.4153 4.65823 16.5383 4.77396 16.6034L6.59675 17.645C6.65461 17.6812 6.72695 17.6812 6.78481 17.645C6.84268 17.6161 6.87884 17.551 6.87884 17.4859L6.87161 12.7408V12.7408V12.7408Z"
    fill="#41873F" />
  <path fill-rule="evenodd" clip-rule="evenodd"
    d="M21.613 6.2092C21.5551 6.18027 21.4828 6.18027 21.4321 6.2092C21.3743 6.24537 21.3381 6.30323 21.3381 6.36833V11.07C21.3381 11.1134 21.3164 11.1568 21.273 11.1857C21.2296 11.2074 21.1862 11.2074 21.1428 11.1857L20.3761 10.7445C20.2603 10.6794 20.1229 10.6794 20.0072 10.7445L16.9403 12.5166C16.8245 12.5817 16.7522 12.7047 16.7522 12.8349V16.372C16.7522 16.5022 16.8245 16.6251 16.9403 16.6902L20.0072 18.4624C20.1229 18.5275 20.2603 18.5275 20.3761 18.4624L23.443 16.6902C23.5587 16.6251 23.631 16.5022 23.631 16.372V7.55459C23.631 7.41716 23.5587 7.29419 23.443 7.22909L21.613 6.2092V6.2092V6.2092ZM21.3308 15.2074C21.3308 15.2436 21.3164 15.2725 21.2874 15.287L20.2386 15.8946C20.2097 15.909 20.1735 15.909 20.1446 15.8946L19.0958 15.287C19.0668 15.2725 19.0524 15.2363 19.0524 15.2074V13.9922C19.0524 13.956 19.0668 13.9271 19.0958 13.9126L20.1446 13.305C20.1735 13.2906 20.2097 13.2906 20.2386 13.305L21.2874 13.9126C21.3164 13.9271 21.3308 13.9633 21.3308 13.9922V15.2074V15.2074V15.2074Z"
    fill="#41873F" />
  <path fill-rule="evenodd" clip-rule="evenodd"
    d="M31.8192 13.9633C31.935 13.8982 32.0001 13.7752 32.0001 13.645V12.7843C32.0001 12.6541 31.9277 12.5311 31.8192 12.466L28.774 10.7011C28.6583 10.636 28.5209 10.636 28.4051 10.7011L25.3382 12.4732C25.2225 12.5383 25.1501 12.6613 25.1501 12.7915V16.3286C25.1501 16.4588 25.2225 16.5817 25.3382 16.6468L28.3834 18.3828C28.4992 18.4479 28.6366 18.4479 28.7451 18.3828L30.5896 17.3557C30.6474 17.3268 30.6836 17.2617 30.6836 17.1966C30.6836 17.1315 30.6474 17.0664 30.5896 17.0374L27.5082 15.2653C27.4503 15.2291 27.4142 15.1712 27.4142 15.1061V13.9994C27.4142 13.9344 27.4503 13.8693 27.5082 13.8403L28.4702 13.2906C28.5281 13.2544 28.6004 13.2544 28.6583 13.2906L29.6203 13.8403C29.6782 13.8765 29.7143 13.9344 29.7143 13.9994V14.8674C29.7143 14.9325 29.7505 14.9976 29.8084 15.0266C29.8662 15.0627 29.9386 15.0627 29.9964 15.0266L31.8192 13.9633V13.9633V13.9633Z"
    fill="#41873F" />
  <path fill-rule="evenodd" clip-rule="evenodd"
    d="M28.5426 13.7969C28.5643 13.7824 28.5932 13.7824 28.6149 13.7969L29.2008 14.1369C29.2225 14.1513 29.237 14.173 29.237 14.202V14.8819C29.237 14.9108 29.2225 14.9325 29.2008 14.947L28.6149 15.287C28.5932 15.3014 28.5643 15.3014 28.5426 15.287L27.9567 14.947C27.935 14.9325 27.9205 14.9108 27.9205 14.8819V14.202C27.9205 14.173 27.935 14.1513 27.9567 14.1369L28.5426 13.7969V13.7969V13.7969Z"
    fill="#539E43" />
  <path fill-rule="evenodd" clip-rule="evenodd"
    d="M12 10.7155C11.8842 10.6504 11.7468 10.6504 11.6311 10.7155L8.58586 12.4732C8.47013 12.5383 8.40503 12.6613 8.40503 12.7915V16.3141C8.40503 16.4443 8.47736 16.5672 8.58586 16.6323L11.6311 18.39C11.7468 18.4551 11.8842 18.4551 12 18.39L15.0452 16.6323C15.1609 16.5672 15.226 16.4443 15.226 16.3141V12.7915C15.226 12.6613 15.1537 12.5383 15.0452 12.4732L12 10.7155V10.7155V10.7155Z"
    fill="white" />
  <path fill-rule="evenodd" clip-rule="evenodd"
    d="M12 10.7155C11.8842 10.6504 11.7468 10.6504 11.6311 10.7155L8.58586 12.4732C8.47013 12.5383 8.40503 12.6613 8.40503 12.7915V16.3141C8.40503 16.4443 8.47736 16.5672 8.58586 16.6323L11.6311 18.39C11.7468 18.4551 11.8842 18.4551 12 18.39L15.0452 16.6323C15.1609 16.5672 15.226 16.4443 15.226 16.3141V12.7915C15.226 12.6613 15.1537 12.5383 15.0452 12.4732L12 10.7155V10.7155V10.7155Z"
    fill="url(#paint0_linear_935_1551)" />
  <mask id="mask0_935_1551" style="mask-type:luminance" maskUnits="userSpaceOnUse" x="8" y="10" width="8" height="9">
    <path fill-rule="evenodd" clip-rule="evenodd"
      d="M12 10.7155C11.8842 10.6504 11.7468 10.6504 11.6311 10.7155L8.58586 12.4732C8.47013 12.5383 8.40503 12.6613 8.40503 12.7915V16.3141C8.40503 16.4443 8.47736 16.5672 8.58586 16.6323L11.6311 18.39C11.7468 18.4551 11.8842 18.4551 12 18.39L15.0452 16.6323C15.1609 16.5672 15.226 16.4443 15.226 16.3141V12.7915C15.226 12.6613 15.1537 12.5383 15.0452 12.4732L12 10.7155V10.7155V10.7155Z"
      fill="white" />
  </mask>
  <g mask="url(#mask0_935_1551)">
    <path fill-rule="evenodd" clip-rule="evenodd"
      d="M15.0525 12.4732L11.9928 10.7155C11.9639 10.7011 11.9277 10.6866 11.8988 10.6794L8.47021 16.5528C8.49915 16.589 8.53531 16.6179 8.57148 16.6396L11.6312 18.3973C11.718 18.4479 11.8192 18.4624 11.9133 18.4334L15.1321 12.5456C15.1104 12.5166 15.0814 12.4949 15.0525 12.4732V12.4732V12.4732Z"
      fill="url(#paint1_linear_935_1551)" />
  </g>
  <mask id="mask1_935_1551" style="mask-type:luminance" maskUnits="userSpaceOnUse" x="8" y="10" width="8" height="9">
    <path fill-rule="evenodd" clip-rule="evenodd"
      d="M12 10.7155C11.8842 10.6504 11.7468 10.6504 11.6311 10.7155L8.58586 12.4732C8.47013 12.5383 8.40503 12.6613 8.40503 12.7915V16.3141C8.40503 16.4443 8.47736 16.5672 8.58586 16.6323L11.6311 18.39C11.7468 18.4551 11.8842 18.4551 12 18.39L15.0452 16.6323C15.1609 16.5672 15.226 16.4443 15.226 16.3141V12.7915C15.226 12.6613 15.1537 12.5383 15.0452 12.4732L12 10.7155V10.7155V10.7155Z"
      fill="white" />
  </mask>
  <g mask="url(#mask1_935_1551)">
    <path fill-rule="evenodd" clip-rule="evenodd"
      d="M15.0597 16.6323C15.1465 16.5817 15.2116 16.4949 15.2405 16.4009L11.8842 10.6721C11.7975 10.6577 11.7034 10.6649 11.6239 10.7155L8.58588 12.466L11.8625 18.4407C11.9059 18.4334 11.9566 18.419 12 18.3973L15.0597 16.6323V16.6323V16.6323Z"
      fill="url(#paint2_linear_935_1551)" />
    <path fill-rule="evenodd" clip-rule="evenodd"
      d="M15.0596 16.6323L12.0072 18.39C11.9638 18.4117 11.9204 18.4262 11.8698 18.4334L11.9276 18.5419L15.3128 16.5817V16.5383L15.226 16.3936C15.2115 16.4949 15.1464 16.5817 15.0596 16.6323V16.6323V16.6323Z"
      fill="url(#paint3_linear_935_1551)" />
    <path fill-rule="evenodd" clip-rule="evenodd"
      d="M15.0596 16.6323L12.0072 18.39C11.9638 18.4117 11.9204 18.4262 11.8698 18.4334L11.9276 18.5419L15.3128 16.5817V16.5383L15.226 16.3936C15.2115 16.4949 15.1464 16.5817 15.0596 16.6323V16.6323V16.6323Z"
      fill="url(#paint4_linear_935_1551)" />
  </g>
  <defs>
    <linearGradient id="paint0_linear_935_1551" x1="11.1578" y1="11.0378" x2="7.91633" y2="14.9606"
      gradientUnits="userSpaceOnUse">
      <stop stop-color="#41873F" />
      <stop offset="0.3288" stop-color="#418B3D" />
      <stop offset="0.6352" stop-color="#419637" />
      <stop offset="0.9319" stop-color="#3FA92D" />
      <stop offset="1" stop-color="#3FAE2A" />
    </linearGradient>
    <linearGradient id="paint1_linear_935_1551" x1="13.1529" y1="19.3637" x2="21.2613" y2="16.1244"
      gradientUnits="userSpaceOnUse">
      <stop offset="0.1376" stop-color="#41873F" />
      <stop offset="0.4032" stop-color="#54A044" />
      <stop offset="0.7136" stop-color="#66B848" />
      <stop offset="0.9081" stop-color="#6CC04A" />
    </linearGradient>
    <linearGradient id="paint2_linear_935_1551" x1="8.29382" y1="18.6693" x2="15.3403" y2="18.6693"
      gradientUnits="userSpaceOnUse">
      <stop offset="0.0919165" stop-color="#6CC04A" />
      <stop offset="0.2864" stop-color="#66B848" />
      <stop offset="0.5968" stop-color="#54A044" />
      <stop offset="0.8624" stop-color="#41873F" />
    </linearGradient>
    <linearGradient id="paint3_linear_935_1551" x1="8.29379" y1="19.672" x2="15.3402" y2="19.672"
      gradientUnits="userSpaceOnUse">
      <stop offset="0.0919165" stop-color="#6CC04A" />
      <stop offset="0.2864" stop-color="#66B848" />
      <stop offset="0.5968" stop-color="#54A044" />
      <stop offset="0.8624" stop-color="#41873F" />
    </linearGradient>
    <linearGradient id="paint4_linear_935_1551" x1="7.56755" y1="11.3315" x2="6.90321" y2="20.2732"
      gradientUnits="userSpaceOnUse">
      <stop stop-color="#41873F" />
      <stop offset="0.3288" stop-color="#418B3D" />
      <stop offset="0.6352" stop-color="#419637" />
      <stop offset="0.9319" stop-color="#3FA92D" />
      <stop offset="1" stop-color="#3FAE2A" />
    </linearGradient>
  </defs>
</svg>