<svg width="490" height="640" viewBox="0 0 490 640" fill="none" xmlns="http://www.w3.org/2000/svg">
<path d="M40 20H113.263L140.737 48.125H349.263L376.737 20H450V132.5L422.526 161.094V413.75L450 470V620H376.737L349.263 591.875H140.737L113.263 620H40V470L67.4737 413.75V161.094L40 132.5V20Z" fill="#221A2B"/>
<path d="M40 20H113.263L140.737 48.125H349.263L376.737 20H450V132.5L422.526 161.094V413.75L450 470V620H376.737L349.263 591.875H140.737L113.263 620H40V470L67.4737 413.75V161.094L40 132.5V20Z" fill="#221A2B" fill-opacity="0.2"/>
<path d="M0 0H80L110 30H380L410 0H490V120L460 150.5V420L490 480V640H410L380 610H110L80 640H0V480L30 420V150.5L0 120V0Z" fill="#221A2B"/>
<path d="M0 0H80L110 30H380L410 0H490V120L460 150.5V420L490 480V640H410L380 610H110L80 640H0V480L30 420V150.5L0 120V0Z" fill="#221A2B" fill-opacity="0.2"/>
<path d="M15 69H92.3895L121.411 91.1719H367.589L396.611 69H474V157.688L444.979 180.229V379.406L474 423.75V542H396.611L367.589 519.828H121.411L92.3895 542H15V423.75L44.0211 379.406V180.229L15 157.688V69Z" fill="#221A2B"/>
<path d="M15 69H92.3895L121.411 91.1719H367.589L396.611 69H474V157.688L444.979 180.229V379.406L474 423.75V542H396.611L367.589 519.828H121.411L92.3895 542H15V423.75L44.0211 379.406V180.229L15 157.688V69Z" fill="#221A2B" fill-opacity="0.2"/>
</svg>
